<?xml version="1.0" encoding="utf-8"?>
<!-- Generator: Adobe Illustrator 22.1.0, SVG Export Plug-In . SVG Version: 6.00 Build 0)  -->
<svg version="1.1" id="Layer_1" xmlns="http://www.w3.org/2000/svg" xmlns:xlink="http://www.w3.org/1999/xlink" x="0px" y="0px"
	 viewBox="0 0 512 512" style="enable-background:new 0 0 512 512;" xml:space="preserve">
<g>
	<path d="M256,31C131.7,31,31,131.7,31,256s100.7,225,225,225s225-100.7,225-225S380.3,31,256,31z M256,437.5
		c-100.3,0-181.5-81.2-181.5-181.5c0-100.3,81.2-181.5,181.5-181.5c100.3,0,181.5,81.2,181.5,181.5
		C437.5,356.3,356.3,437.5,256,437.5z M353.4,345.8c-8.7,8.8-41.3,37.6-94.4,37.6c-74.8,0-127.5-55.7-127.5-128.4
		c0-71.8,54.7-126.5,126.8-126.5c50.4,0,80.5,24.2,88.5,31.6c3.9,3.6,4.6,9.5,1.8,13.9l-16.5,25.5c-3.5,5.4-10.9,6.6-15.9,2.7
		c-7.8-6.1-28.9-20.4-56-20.4c-43.8,0-70.7,32.1-70.7,72.7c0,37.7,24.4,75.9,71,75.9c29.6,0,51.6-17.3,59.6-24.7
		c4.8-4.4,12.3-3.7,16.2,1.6l18,24.7C357.6,336,357.2,342,353.4,345.8L353.4,345.8z"/>
</g>
</svg>
